<?xml version="1.0" encoding="UTF-8"?>
<svg version="1.1" xmlns="http://www.w3.org/2000/svg" width="512" height="512">
<path d="M0 0 C17.82 0 35.64 0 54 0 C56.475 3.96 56.475 3.96 59 8 C65.43143349 14.43143349 72.06841593 16.32593364 80.88723755 16.40658569 C81.87448822 16.400513 82.86173889 16.39444031 83.87890625 16.38818359 C84.94011688 16.39344055 86.00132751 16.39869751 87.09469604 16.40411377 C90.5841161 16.41726045 94.07307573 16.40859428 97.5625 16.3984375 C99.99812914 16.40045976 102.43375769 16.40337246 104.86938477 16.40713501 C109.96669293 16.41155116 115.06384306 16.40514996 120.16113281 16.39111328 C126.68447957 16.37402208 133.207456 16.38386702 139.73078918 16.40183067 C144.75804417 16.41268753 149.78521182 16.40921338 154.81246948 16.4014473 C157.21735681 16.39945056 159.62225215 16.401886 162.02713013 16.40888596 C165.3919974 16.41653151 168.75627055 16.40485204 172.12109375 16.38818359 C173.10834442 16.39425629 174.09559509 16.40032898 175.11276245 16.40658569 C184.17425461 16.32371431 191.05247689 13.89884038 198 8 C200.475 4.04 200.475 4.04 203 0 C220.82 0 238.64 0 257 0 C257 59.4 257 118.8 257 180 C178.5 180.25 178.5 180.25 153.72460938 180.29785156 C146.3879871 180.33107647 146.3879871 180.33107647 139.0513916 180.36956787 C135.78669623 180.386555 132.52218484 180.39243238 129.25744629 180.39154053 C125.08836337 180.39076772 120.91976939 180.40911249 116.75081348 180.44108915 C115.22374623 180.44958566 113.69662375 180.45146067 112.16954327 180.44582415 C104.26562355 180.42035227 97.72346211 180.41217596 91 185 C86.51928489 190.48885087 86.72376087 195.99384802 86.90527344 202.84594727 C87.27435747 217.08326856 85.42367531 224.78907065 75.73339844 235.03808594 C72.55331814 238.63739936 70.01493072 242.68531625 67.375 246.6875 C62.20182613 254.36622398 56.76331193 261.75357845 51 269 C47.57719483 267.53417985 45.43519517 265.61937745 42.875 262.9375 C39.18705976 259.02112484 39.18705976 259.02112484 34.125 257.625 C30.86029002 257.71950061 30.86029002 257.71950061 28.5625 260.125 C26.59621949 263.74295614 26.9322762 265.07917315 28 269 C30.63857315 272.63993268 33.92264346 275.66494569 37.125 278.8125 C37.96804687 279.68326172 38.81109375 280.55402344 39.6796875 281.45117188 C44.54881724 286.52981362 44.54881724 286.52981362 50.8046875 289.38671875 C55.2074581 288.8538651 56.25726415 287.45804136 59 284 C61.08607315 281.29366488 63.0876044 278.53835237 65.0625 275.75 C65.62106689 274.97019775 66.17963379 274.19039551 66.75512695 273.38696289 C69.67673177 269.30000115 72.56881518 265.19302702 75.4453125 261.07421875 C76.26310181 259.90584473 76.26310181 259.90584473 77.09741211 258.71386719 C78.14168784 257.21888379 79.18170853 255.72091736 80.21704102 254.21972656 C83.77962854 249.11018573 83.77962854 249.11018573 86 248 C86 273.41 86 298.82 86 325 C57.62 325 29.24 325 0 325 C0 217.75 0 110.5 0 0 Z M79.9375 48.25 C79.37313232 49.03922852 78.80876465 49.82845703 78.22729492 50.64160156 C76.47902016 53.0903077 74.73823697 55.54416037 73 58 C72.46858398 58.75023438 71.93716797 59.50046875 71.38964844 60.2734375 C68.88098461 63.81804861 66.37802996 67.36662648 63.87890625 70.91796875 C59.61809861 76.96822873 55.30925693 82.98420105 51 89 C47.32637797 87.49074671 45.31202467 85.31185709 42.6875 82.375 C39.0905639 78.68309491 39.0905639 78.68309491 34.1875 77.1875 C30.5144588 78.1237654 29.17103658 78.91044795 27 82 C25.83022506 84.34872531 25.83022506 84.34872531 26 87 C29.14380762 92.55078533 33.48922758 96.78825772 38 101.25 C39.06734375 102.32894531 39.06734375 102.32894531 40.15625 103.4296875 C40.8471875 104.11804688 41.538125 104.80640625 42.25 105.515625 C42.87390625 106.13727539 43.4978125 106.75892578 44.140625 107.39941406 C46.82394255 109.70926567 48.85673412 111.02931451 52.4375 110.9375 C58.4882426 108.72381368 61.98656583 102.42938063 65.5 97.3125 C66.56155133 95.78709978 67.62408436 94.26238237 68.6875 92.73828125 C69.23277344 91.95533691 69.77804688 91.17239258 70.33984375 90.36572266 C73.01919931 86.54764099 75.75972012 82.77447205 78.5 79 C84.29424225 71.00505997 90.01122049 62.95749633 95.67431641 54.86914062 C96.57975337 53.59252454 97.49942739 52.32591786 98.43115234 51.06835938 C101.21449648 47.29977659 101.21449648 47.29977659 102.625 42.875 C101.75854542 38.88930891 100.25455145 37.40553803 97 35 C88.56101748 33.24187864 84.20861462 42.21851542 79.9375 48.25 Z M121 56 C119.75322994 58.89706707 119.75322994 58.89706707 120 62 C121.77039449 64.74716387 123.06291844 66.53145922 126 68 C129.08550437 68.11975417 132.1490887 68.17843309 135.2355957 68.19287109 C136.67239182 68.20513733 136.67239182 68.20513733 138.13821411 68.21765137 C141.31739674 68.2425241 144.49653469 68.25902557 147.67578125 68.2734375 C148.75993002 68.27876118 149.84407879 68.28408485 150.96108055 68.28956985 C156.69857451 68.31630867 162.43604665 68.33568188 168.17358398 68.35009766 C174.10563618 68.36675388 180.03713371 68.41153818 185.96897602 68.4624691 C190.52514804 68.49609135 195.08118756 68.50766958 199.63747215 68.51332474 C201.82438589 68.5200503 204.01129051 68.53530602 206.19808388 68.55921555 C209.25792551 68.5907636 212.31625976 68.59091922 215.3762207 68.58349609 C216.28082535 68.59990143 217.18542999 68.61630676 218.1174469 68.63320923 C222.57181601 68.58893888 224.42267999 68.44282132 228.06242371 65.65103149 C230.18975309 63.12342464 230.18975309 63.12342464 230.625 60 C229.76061648 55.85095911 228.35483779 54.57902402 225 52 C221.80684407 51.2736053 218.68743444 51.32649278 215.42382812 51.36889648 C213.98637489 51.35816353 213.98637489 51.35816353 212.5198822 51.34721375 C209.35651785 51.330324 206.19457009 51.34973163 203.03125 51.37109375 C200.83076866 51.37026508 198.63028739 51.36780578 196.42980957 51.36378479 C191.8197159 51.36092658 187.210108 51.37563076 182.60009766 51.40307617 C176.69165189 51.43715847 170.78407481 51.43114067 164.87558746 51.4124136 C160.33222213 51.40184363 155.78905883 51.41078151 151.24571228 51.42579842 C149.06722107 51.43098067 146.88870876 51.43049791 144.71022034 51.42425346 C141.66507622 51.41880148 138.62117444 51.43917678 135.57617188 51.46655273 C134.22633461 51.45676392 134.22633461 51.45676392 132.84922791 51.44677734 C127.66545113 51.52599531 124.68384868 51.97478233 121 56 Z M121 90 C120.00333111 93.18934044 119.68983672 95.06951017 120.75 98.25 C122.05104872 100.29017165 122.05104872 100.29017165 125 102 C127.57109676 102.31763109 127.57109676 102.31763109 130.49365234 102.29052734 C132.18087906 102.3096669 132.18087906 102.3096669 133.90219116 102.32919312 C135.11782745 102.33141876 136.33346375 102.33364441 137.5859375 102.3359375 C138.83500885 102.3425943 140.0840802 102.3492511 141.3710022 102.35610962 C144.01570871 102.36624418 146.66000426 102.37179063 149.3046875 102.37060547 C152.68652133 102.3704024 156.06751364 102.39769062 159.44914818 102.43214989 C162.6822129 102.45979528 165.91527063 102.45856896 169.1484375 102.4609375 C170.36002533 102.47530853 171.57161316 102.48967957 172.81991577 102.50448608 C173.9510379 102.49833282 175.08216003 102.49217957 176.24755859 102.48583984 C177.2400058 102.48868988 178.232453 102.49153992 179.25497437 102.49447632 C182.79901291 101.85606948 184.48264246 100.53667203 187 98 C187.54051695 94.21638135 187.54762568 91.9909417 185.6875 88.625 C182.68862524 85.73719468 179.64782377 85.86378225 175.68994141 85.82299805 C174.6051651 85.81016281 173.52038879 85.79732758 172.40274048 85.78410339 C171.23085175 85.77671646 170.05896301 85.76932953 168.8515625 85.76171875 C167.64688324 85.753647 166.44220398 85.74557526 165.20101929 85.73725891 C162.65062906 85.72342131 160.10022033 85.71269771 157.54980469 85.70483398 C153.64743105 85.68759907 149.74589965 85.64370564 145.84375 85.59960938 C143.36719374 85.58948443 140.89063027 85.58096771 138.4140625 85.57421875 C137.24622223 85.55671066 136.07838196 85.53920258 134.87515259 85.52116394 C127.03078525 85.3931775 127.03078525 85.3931775 121 90 Z M80 142.1875 C78.8491341 143.79960466 77.69808718 145.41158011 76.546875 147.0234375 C75.96099609 147.84682617 75.37511719 148.67021484 74.77148438 149.51855469 C72.49786198 152.70338077 70.19980847 155.87010731 67.90112305 159.03686523 C62.15846369 166.95159655 56.5193312 174.92779985 51 183 C47.94670366 181.65012162 46.87352385 180.84275938 44.6875 178.125 C41.80214444 174.55139449 39.31059397 172.70937347 35 171 C31.24569383 171.98473604 28.94994172 172.81257285 26.5 175.875 C25.8591257 178.59871576 26.26488732 180.30729444 27 183 C28.97088297 185.96589185 31.5388569 188.43421647 34 191 C34.69706055 191.7437085 34.69706055 191.7437085 35.40820312 192.50244141 C36.94661008 194.13960416 38.50180256 195.75909092 40.0625 197.375 C40.55661377 197.89908447 41.05072754 198.42316895 41.55981445 198.96313477 C44.77867779 202.2310028 47.42012071 204.28230311 52 205 C61.69960032 200.91445406 67.93056505 187.94416718 73.7890625 179.56640625 C76.46236533 175.74962392 79.18106592 171.96825151 81.92016602 168.19848633 C84.08944901 165.21205407 86.24618874 162.21669872 88.40087891 159.21972656 C89.47254699 157.73215309 90.54778487 156.24714526 91.62646484 154.76464844 C93.1808468 152.62305552 94.71724662 150.46960522 96.25 148.3125 C96.94911499 147.36008423 96.94911499 147.36008423 97.66235352 146.38842773 C100.51575433 142.326096 101.88246307 139.10976318 102 134 C99.59686932 130.57735933 98.11289267 129.23185264 94 128.375 C87.46342584 129.73678628 83.64834435 137.02421241 80 142.1875 Z M121 150 C119.83551119 152.90351124 119.83551119 152.90351124 120 156 C121.77039449 158.74716387 123.06291844 160.53145922 126 162 C129.06059193 162.10402513 132.0986179 162.14680009 135.15966797 162.14526367 C136.10938477 162.14862228 137.05910156 162.1519809 138.03759766 162.15544128 C141.18914077 162.16496995 144.34063086 162.1668954 147.4921875 162.16796875 C149.67693097 162.17118014 151.86167422 162.17454412 154.04641724 162.17805481 C158.63137307 162.18405098 163.21631005 162.18589422 167.80126953 162.18530273 C173.6816491 162.18520112 179.5619079 162.19885074 185.44225883 162.21607494 C189.95635536 162.22718405 194.4704226 162.22922227 198.9845314 162.22869301 C201.15269512 162.22987487 203.32085955 162.23430814 205.48900986 162.24202538 C208.51994064 162.25180264 211.55060811 162.24895605 214.58154297 162.24291992 C215.92981674 162.25134918 215.92981674 162.25134918 217.30532837 162.25994873 C218.1325238 162.25575424 218.95971924 162.25155975 219.8119812 162.24723816 C220.52838209 162.24778293 221.24478298 162.24832769 221.98289299 162.24888897 C224.3955765 161.95119018 225.94455991 161.29294254 228 160 C230.34549674 156.48175489 230.57991403 155.14224306 230 151 C227.99607924 148.23108094 226.3895082 146.31273751 222.95432854 145.53957939 C220.39600326 145.35498018 217.88103448 145.33597097 215.31616211 145.36889648 C213.86166908 145.35816353 213.86166908 145.35816353 212.37779236 145.34721375 C209.17716156 145.33032437 205.97793078 145.34973005 202.77734375 145.37109375 C200.55204655 145.37026515 198.32674941 145.36780609 196.10145569 145.36378479 C191.44008947 145.3609267 186.77920373 145.37563089 182.11791992 145.40307617 C176.13987682 145.43717825 170.16269183 145.43113398 164.18460751 145.4124136 C159.59067112 145.40185144 154.99693482 145.41077406 150.40301704 145.42579842 C148.19857947 145.43098508 145.99412105 145.43049258 143.7896862 145.42425346 C140.71081374 145.41881011 137.63317526 145.43914829 134.55444336 145.46655273 C133.18518707 145.45676392 133.18518707 145.45676392 131.78826904 145.44677734 C126.85909076 145.52147306 123.97987261 145.62732947 121 150 Z " fill="#000000" transform="translate(51,68)"/>
<path d="M0 0 C76.23 0 152.46 0 231 0 C231 56.76 231 113.52 231 172 C209.941875 172.12375 188.88375 172.2475 167.1875 172.375 C160.55293701 172.42962402 153.91837402 172.48424805 147.08276367 172.54052734 C138.94396973 172.56762695 138.94396973 172.56762695 135.12666321 172.57266235 C132.47561555 172.58184228 129.82631863 172.60058796 127.1756134 172.63345337 C123.14694656 172.68273337 119.11954382 172.68342874 115.09057617 172.68115234 C113.92163661 172.70274099 112.75269705 172.72432964 111.54833508 172.74657249 C104.30189766 172.69204149 99.54684668 171.29539736 93.39769459 167.42283058 C85.42352248 162.69082843 75.09762936 163.09693942 66.34765625 165.2265625 C61.94531344 166.67691837 56.33114681 168.66885319 53 172 C35.51 172 18.02 172 0 172 C0 115.24 0 58.48 0 0 Z " fill="#000000" transform="translate(153,264)"/>
<path d="M0 0 C0.80037689 -0.00058411 1.60075378 -0.00116821 2.42538452 -0.00177002 C5.06626014 0.00101281 7.7060017 0.03211322 10.34667969 0.06347656 C12.17941674 0.07093827 14.01216178 0.07663153 15.84490967 0.08062744 C20.66526371 0.09588935 25.48513454 0.13517594 30.30529785 0.17944336 C35.2252753 0.22038406 40.14533094 0.23863589 45.06542969 0.25878906 C54.71671766 0.30166982 64.36752037 0.37202421 74.01855469 0.45410156 C74.01855469 6.39410156 74.01855469 12.33410156 74.01855469 18.45410156 C71.47563721 18.46812012 71.47563721 18.46812012 68.88134766 18.48242188 C63.26528114 18.51801606 57.64958557 18.57185612 52.03379631 18.6380043 C48.63058486 18.67742833 45.22763015 18.7096411 41.82421875 18.72509766 C37.90689222 18.74320981 33.9902771 18.79318374 30.07324219 18.84472656 C28.85740448 18.8459552 27.64156677 18.84718384 26.3888855 18.84844971 C17.95105699 18.95116307 17.95105699 18.95116307 11.01855469 23.45410156 C5.74273272 29.2030364 6.46102891 35.32140815 6.51734924 42.81518555 C6.51345498 44.19377688 6.50781352 45.57236419 6.50057834 46.95094204 C6.48582346 50.73407109 6.49600488 54.51678393 6.51031506 58.29989958 C6.52142087 62.38176743 6.50948356 66.46357671 6.50047302 70.54544067 C6.48653587 78.53976876 6.49410023 86.53393895 6.50914861 94.52825952 C6.52600406 103.83670143 6.52279902 113.14510396 6.51905452 122.45355642 C6.51317507 139.06151745 6.52735086 155.66940269 6.55200195 172.27734375 C6.57592297 188.3952112 6.58300632 204.51297736 6.57250977 220.63085938 C6.56110197 238.17945058 6.55916879 255.72799494 6.57360786 273.27658558 C6.57513371 275.1476167 6.57665407 277.01864783 6.57816887 278.88967896 C6.57892668 279.81027759 6.5796845 280.73087622 6.58046528 281.67937177 C6.58520917 288.16881311 6.58335591 294.65823354 6.57910347 301.14767456 C6.57417816 309.05544987 6.5801551 316.96312939 6.59999777 324.87088275 C6.60987339 328.90604473 6.614972 332.94106084 6.60710526 336.97623062 C6.60005166 340.6698604 6.60684535 344.36319572 6.62470888 348.05678666 C6.63067304 350.02644149 6.62192495 351.99612387 6.61266237 353.96576595 C6.59066803 362.1545709 6.59066803 362.1545709 10.01855469 369.45410156 C15.3246637 374.3622524 19.65059097 374.61113543 26.62084961 374.65942383 C27.49910904 374.66932343 28.37736847 374.67922302 29.28224182 374.68942261 C32.18780819 374.72103275 35.09339091 374.74579317 37.99902344 374.77050781 C40.01256233 374.79107775 42.0260969 374.81207424 44.03962708 374.83348083 C49.34142565 374.88869733 54.64326318 374.93810851 59.94512939 374.98632812 C65.35440541 375.0365462 70.76362481 375.09223067 76.17285156 375.14746094 C86.78803939 375.25503738 97.40327526 375.35597846 108.01855469 375.45410156 C108.01855469 381.39410156 108.01855469 387.33410156 108.01855469 393.45410156 C93.11086553 393.56988077 78.20324444 393.65909187 63.2952013 393.71316242 C56.37299602 393.73893653 49.45107534 393.77407118 42.52905273 393.83129883 C35.85061918 393.88648626 29.17254257 393.91551222 22.49387169 393.92848778 C19.94411244 393.93773627 17.39436963 393.95579616 14.8447361 393.98275185 C11.27707378 394.01897515 7.71063848 394.02404944 4.14282227 394.02172852 C3.08546371 394.0397049 2.02810516 394.05768127 0.93870544 394.07620239 C-0.03579559 394.06932907 -1.01029663 394.06245575 -2.014328 394.05537415 C-2.85776858 394.05998311 -3.70120916 394.06459208 -4.57020855 394.06934071 C-8.16683294 393.15164397 -9.63422205 391.27861212 -11.98144531 388.45410156 C-12.60704046 385.37549251 -12.60704046 385.37549251 -12.6078577 381.85296535 C-12.61482531 381.20005902 -12.62179292 380.54715269 -12.62897167 379.87446132 C-12.64624055 377.68291739 -12.62784021 375.4931358 -12.6096344 373.30162048 C-12.61467872 371.71622447 -12.62190667 370.13083414 -12.63113254 368.54545695 C-12.65009804 364.18608073 -12.63779711 359.82726388 -12.62040961 355.46790159 C-12.60706157 350.76777046 -12.62246341 346.06772258 -12.63423157 341.36759949 C-12.65263128 332.15925109 -12.64408048 322.95111459 -12.62614334 313.74277275 C-12.61213074 306.26102619 -12.60822166 298.77933724 -12.61158562 291.29757881 C-12.61206306 290.23367244 -12.6125405 289.16976606 -12.61303241 288.0736201 C-12.61405872 285.91248268 -12.61511407 283.75134527 -12.61619817 281.59020788 C-12.62476985 262.47147308 -12.60807461 243.35284073 -12.57836914 224.23413086 C-12.54952657 205.67061052 -12.54244952 187.10723777 -12.55786133 168.54370117 C-12.57461095 148.3410309 -12.57867067 128.13843074 -12.56115097 107.93575865 C-12.55930653 105.78277529 -12.5574718 103.62979192 -12.5556469 101.47680855 C-12.55473481 100.41742799 -12.55382272 99.35804744 -12.55288299 98.26656444 C-12.54727019 90.79084091 -12.55059165 83.31515154 -12.55719185 75.83942986 C-12.56491212 66.73334205 -12.55821954 57.62739969 -12.53301681 48.52134126 C-12.52049183 43.87275162 -12.51441144 39.22438877 -12.52555847 34.57579041 C-12.53556182 30.323956 -12.52722529 26.07257495 -12.50397729 21.82079596 C-12.4987962 20.27916935 -12.50041884 18.73750248 -12.50937194 17.19589316 C-12.52050088 15.10651216 -12.50720944 13.0186819 -12.48760319 10.92939663 C-12.48641171 9.76712502 -12.48522022 8.60485341 -12.48399264 7.40736145 C-11.26621355 0.25098443 -6.28262182 -0.12008706 0 0 Z " fill="#000000" transform="translate(28.9814453125,33.5458984375)"/>
<path d="M0 0 C8.58 0 17.16 0 26 0 C26.03738281 3.81691406 26.07476562 7.63382812 26.11328125 11.56640625 C26.15952508 15.27325083 26.21074854 18.97999559 26.26245117 22.68676758 C26.29565442 25.25799466 26.32370058 27.82929382 26.34643555 30.40063477 C26.38006514 34.10203698 26.4323877 37.8027814 26.48828125 41.50390625 C26.49467117 42.64896133 26.5010611 43.79401642 26.50764465 44.97377014 C26.6313444 51.72671913 26.91113914 57.41241681 31.5 62.7421875 C35.65126546 65.87725777 38.50618695 67.1086952 43.6550293 67.20532227 C44.60889526 67.22550415 45.56276123 67.24568604 46.54553223 67.26647949 C47.54499878 67.28295532 48.54446533 67.29943115 49.57421875 67.31640625 C50.95559021 67.34438293 50.95559021 67.34438293 52.36486816 67.3729248 C55.80564765 67.44123409 59.24658538 67.50137541 62.6875 67.5625 C74.2271875 67.7790625 74.2271875 67.7790625 86 68 C86 88.13 86 108.26 86 129 C59 129 59 129 48 123 C36.66294715 119.58335394 27.00169594 120.61709018 16 125 C14.948125 125.7425 13.89625 126.485 12.8125 127.25 C10 129 10 129 0 129 C0 86.43 0 43.86 0 0 Z M54.3125 88.03515625 C51.39106969 91.78070625 51.3581074 93.85965578 51.4375 98.5625 C51.43621094 99.86316406 51.43492187 101.16382813 51.43359375 102.50390625 C52.07319187 106.45177051 52.85238 107.63057387 56 110 C59.25860644 111.25331017 60.47313898 111.23279906 63.6875 109.8125 C66.16808394 107.86825854 66.87492408 106.89019504 68 104 C68.63328593 98.64652476 68.83450669 93.70239364 66.4375 88.8125 C62.1620691 85.63333343 58.70716731 84.70721778 54.3125 88.03515625 Z " fill="#000000" transform="translate(401,307)"/>
<path d="M0 0 C1.07695129 -0.0071553 2.15390259 -0.01431061 3.26348877 -0.02168274 C6.82119232 -0.03858342 10.3776384 -0.01915888 13.93530273 0.00219727 C16.40722254 0.00136876 18.87914229 -0.00108991 21.35105896 -0.00511169 C26.5302693 -0.00797058 31.70904739 0.00674234 36.88818359 0.03417969 C43.53207517 0.06827964 50.17519461 0.06223875 56.81912327 0.04351711 C61.92260696 0.03295748 67.02591044 0.04187537 72.12937737 0.05690193 C74.57943118 0.06209057 77.02950376 0.06159372 79.47955513 0.05535698 C82.90084555 0.04991686 86.32102375 0.07024246 89.7421875 0.09765625 C91.26573097 0.08786743 91.26573097 0.08786743 92.8200531 0.07788086 C99.61980861 0.17069261 99.61980861 0.17069261 102.93431091 2.39332581 C104.43389039 4.83903735 104.81178495 6.12324796 104.82397461 8.96899414 C104.83658325 9.81667358 104.84919189 10.66435303 104.86218262 11.53771973 C104.85408569 12.44509888 104.84598877 13.35247803 104.83764648 14.28735352 C104.84338684 15.69627869 104.84338684 15.69627869 104.84924316 17.13366699 C104.85196225 19.11736118 104.84460132 21.10109122 104.82788086 23.0847168 C104.8064711 26.12052367 104.82768255 29.15396397 104.85327148 32.18969727 C104.85062821 34.1180879 104.84550323 36.04647707 104.83764648 37.97485352 C104.84574341 38.88223267 104.85384033 39.78961182 104.86218262 40.7244873 C104.76860651 47.01561197 104.76860651 47.01561197 102.39819336 50.17211914 C99.36044184 52.29088701 97.69477665 52.75761019 94.03739929 52.77154541 C93.14156128 52.77725555 92.24572327 52.7829657 91.32273865 52.78884888 C89.84451378 52.79052567 89.84451378 52.79052567 88.33642578 52.79223633 C87.30053314 52.79720123 86.2646405 52.80216614 85.19735718 52.80728149 C81.75843652 52.82192838 78.319562 52.82870948 74.88061523 52.83422852 C72.49648537 52.83997807 70.11235553 52.84573583 67.72822571 52.85150146 C62.72376286 52.86201878 57.7193161 52.8678566 52.71484375 52.87133789 C46.29868021 52.87682283 39.88272887 52.90084799 33.46663189 52.92930984 C28.53987505 52.94792369 23.61316943 52.95314117 18.68638039 52.95467377 C16.32086846 52.95770386 13.9553575 52.96574434 11.58987999 52.97885895 C8.28127229 52.9958922 4.9731844 52.99404557 1.66455078 52.98754883 C0.68514023 52.99676361 -0.29427032 53.00597839 -1.30335999 53.01547241 C-6.22133824 52.98518484 -9.76242531 52.94129479 -13.69360352 49.63110352 C-15.70552891 46.61321542 -15.94899208 45.99377428 -16 42.60620117 C-16.0159874 41.80171539 -16.03197479 40.99722961 -16.04844666 40.16836548 C-16.05380936 39.30270966 -16.05917206 38.43705383 -16.06469727 37.54516602 C-16.07372574 36.65123138 -16.08275421 35.75729675 -16.09205627 34.83627319 C-16.10656328 32.94500072 -16.11544663 31.05367802 -16.11914062 29.16235352 C-16.13103203 26.27346905 -16.18020719 23.38672427 -16.23071289 20.49829102 C-16.24017788 18.65975976 -16.24741255 16.8212154 -16.25219727 14.98266602 C-16.27172958 14.12105865 -16.2912619 13.25945129 -16.31138611 12.37173462 C-16.30530838 11.56094452 -16.29923065 10.75015442 -16.29296875 9.91479492 C-16.30057472 8.85248154 -16.30057472 8.85248154 -16.30833435 7.76870728 C-13.94248242 -0.45807053 -7.11061521 -0.08201744 0 0 Z " fill="#000000" transform="translate(134.693603515625,16.368896484375)"/>
<path d="M0 0 C10.4919914 -0.09034037 20.98372481 -0.16373852 31.476017 -0.20724869 C36.34792776 -0.22813056 41.21955882 -0.25645914 46.09130859 -0.30175781 C50.79214988 -0.34519419 55.49272201 -0.36913259 60.19374847 -0.37950897 C61.98794544 -0.38690432 63.78212754 -0.40134567 65.57621002 -0.42292023 C68.08791528 -0.45192537 70.59850599 -0.45595729 73.11035156 -0.45410156 C74.22489464 -0.47567322 74.22489464 -0.47567322 75.36195374 -0.49768066 C78.83746217 -0.46986498 80.65542097 -0.26983645 83.43060303 1.90338135 C86.42660198 5.90585325 86.13778097 9.30241637 86.12025452 14.13699341 C86.12110894 14.98808115 86.12196337 15.83916889 86.12284368 16.71604717 C86.12449835 19.5843194 86.11897731 22.45253389 86.11352539 25.32080078 C86.11324349 27.3703308 86.11340131 29.41986091 86.1139679 31.46939087 C86.11425576 37.04761572 86.10836082 42.62581923 86.10139394 48.2040391 C86.09515855 54.02834879 86.09455645 59.85265892 86.09336853 65.67697144 C86.09025576 76.71252498 86.08204311 87.74806866 86.07201904 98.78361785 C86.06085621 111.34448802 86.05534702 123.90535865 86.05032361 136.46623254 C86.03986045 162.31082735 86.02206151 188.15541271 86 214 C80.06 214 74.12 214 68 214 C67.99413376 211.73543442 67.98826752 209.47086884 67.98222351 207.13768005 C67.92557584 185.81609231 67.852506 164.49460611 67.76428509 143.17312527 C67.7193232 132.21104837 67.67990939 121.24900399 67.65356445 110.28686523 C67.63058762 100.73205444 67.59719301 91.17734652 67.55129844 81.6226173 C67.52736208 76.56365213 67.50863597 71.50478887 67.50238609 66.44576836 C67.49633717 61.6826653 67.47634406 56.919823 67.44572449 52.15681648 C67.43694122 50.41015051 67.43322228 48.66345047 67.43499184 46.91676331 C67.43664761 44.52794372 67.41992017 42.1399162 67.39872742 39.75120544 C67.40357499 39.06344274 67.40842257 38.37568004 67.41341704 37.66707605 C67.32775765 31.79811915 65.86169125 27.22201859 62.0625 22.6875 C58.22060734 19.54413328 55.36433721 18.74816672 50.40527344 18.68115234 C49.28441345 18.66128265 48.16355347 18.64141296 47.00872803 18.62094116 C45.20229828 18.60361435 45.20229828 18.60361435 43.359375 18.5859375 C41.50339691 18.55688828 41.50339691 18.55688828 39.60992432 18.5272522 C36.32861429 18.47762011 33.04733888 18.43633933 29.76586914 18.39910889 C26.41411724 18.35902344 23.06255655 18.30778775 19.7109375 18.2578125 C13.14072463 18.16175494 6.57045431 18.0777232 0 18 C0 12.06 0 6.12 0 0 Z " fill="#000000" transform="translate(256,34)"/>
<path d="M0 0 C42.24 0 84.48 0 128 0 C126.68 5.94 125.36 11.88 124 18 C84.4 18 44.8 18 4 18 C0 2 0 2 0 0 Z " fill="#000000" transform="translate(269,452)"/>
<path d="M0 0 C5.65151937 4.63424588 8.32758008 9.89739674 9.19140625 17.13671875 C9.41166403 24.27733384 9.43675372 30.75090548 4.75 36.4375 C-0.76559079 42.28800332 -5.41510433 45.95513222 -13.6171875 46.7734375 C-22.68538225 46.87441962 -28.13377992 45.99241734 -35 40.0625 C-40.09109808 34.12288557 -42.83392813 28.9310762 -43.5625 21.0625 C-42.89860469 13.36131439 -40.2592148 6.16098012 -34.49609375 0.80859375 C-23.96686882 -7.74253804 -11.12374367 -7.39488045 0 0 Z " fill="#000000" transform="translate(247.25,448.5625)"/>
<path d="M0 0 C29.48613222 0 29.48613222 0 36.6171875 6.41015625 C42.36646887 13.02020573 44.13276142 19.60621351 44.09765625 28.171875 C44.09515869 29.4206543 44.09266113 30.66943359 44.09008789 31.95605469 C44.08098389 33.53805664 44.07187988 35.12005859 44.0625 36.75 C44.041875 41.7825 44.02125 46.815 44 52 C29.48 52 14.96 52 0 52 C0 34.84 0 17.68 0 0 Z " fill="#000000" transform="translate(443,307)"/>
<path d="M0 0 C6.46742935 4.42990293 10.51261405 9.53784214 13 17 C13.85941585 25.75376426 13.21656692 32.74673819 8 40 C3.24773264 45.32795771 -2.08716119 48.57054208 -9.203125 49.3515625 C-17.1873077 49.67991633 -23.53037164 48.92073022 -30 44 C-35.61532686 38.40851741 -39.04399962 31.50650903 -39.375 23.5625 C-39.03141179 15.56376645 -36.45153878 9.55783362 -30.96875 3.7265625 C-22.18786369 -3.97413541 -10.37274294 -5.12301266 0 0 Z " fill="#000000" transform="translate(448,446)"/>
<path d="M0 0 C7.26 0 14.52 0 22 0 C20.68 5.94 19.36 11.88 18 18 C12.06 18 6.12 18 0 18 C0 12.06 0 6.12 0 0 Z " fill="#000000" transform="translate(170,452)"/>
<path d="M0 0 C6.93 0 13.86 0 21 0 C21 5.94 21 11.88 21 18 C15.06 18 9.12 18 3 18 C2.51171875 14.77734375 2.0234375 11.5546875 1.53515625 8.33203125 C1.08731926 5.54367395 0.55384997 2.76924983 0 0 Z " fill="#000000" transform="translate(474,452)"/>
</svg>
