<?xml version="1.0" encoding="UTF-8"?>
<svg version="1.1" xmlns="http://www.w3.org/2000/svg" width="512" height="512">
<path d="M0 0 C0.70423792 -0.00235223 1.40847584 -0.00470446 2.1340543 -0.00712797 C4.49972187 -0.01379807 6.86533427 -0.01336035 9.23101044 -0.01294994 C10.94197851 -0.01624981 12.6529458 -0.01997564 14.36391211 -0.02409142 C19.07057326 -0.03410562 23.77722166 -0.03782729 28.48389196 -0.04048073 C33.55840693 -0.04438551 38.63291182 -0.05396375 43.70742035 -0.0626936 C55.96505193 -0.08245331 68.22268432 -0.0925237 80.48032784 -0.10142139 C86.25360178 -0.10580518 92.0268748 -0.11117176 97.80014801 -0.11641026 C116.9935436 -0.13342221 136.18693861 -0.14791613 155.38034058 -0.155159 C160.36079662 -0.15706887 165.34125266 -0.15898921 170.32170868 -0.16094494 C172.17849598 -0.16167055 172.17849598 -0.16167055 174.07279414 -0.16241082 C194.12288756 -0.17071017 214.1729213 -0.19604567 234.22298867 -0.22852562 C254.81090686 -0.26160477 275.39879473 -0.27960854 295.98673964 -0.28280324 C307.54489054 -0.28496756 319.10295442 -0.2937049 330.66107941 -0.31926441 C340.50505824 -0.34098307 350.3489289 -0.34901606 360.19292897 -0.33929763 C365.21326939 -0.33475632 370.23338669 -0.33662946 375.25369644 -0.35605907 C379.85568927 -0.37371546 384.45729662 -0.37267292 389.05929369 -0.35716178 C390.71818487 -0.35478947 392.37710292 -0.35908958 394.0359531 -0.37099043 C412.36547748 -0.49427303 427.89430164 4.15474498 441.15862274 17.17718983 C450.20255518 26.53710769 457.03128335 40.04919806 457.05846882 53.2109499 C457.06292666 54.21610598 457.06738451 55.22126206 457.07197744 56.25687742 C457.07170089 57.90261944 457.07170089 57.90261944 457.07141876 59.58160877 C457.07509545 60.75277162 457.07877214 61.92393447 457.08256024 63.1305871 C457.09166844 66.37785198 457.09629269 69.62508716 457.09894955 72.87236261 C457.10286067 76.3763132 457.11243849 79.88024927 457.12116241 83.38419056 C457.14090495 91.84497577 457.15099063 100.30576213 457.1598902 108.76656461 C457.16427708 112.75465202 457.16964289 116.7427381 457.17487907 120.73082447 C457.19188981 133.99485721 457.20638257 147.25888913 457.21362782 160.5229311 C457.21553759 163.96334808 457.21745794 167.40376506 457.21941376 170.84418201 C457.2198975 171.69924153 457.22038124 172.55430104 457.22087964 173.43527144 C457.2291747 187.27751233 457.25450344 201.11966666 457.28699443 214.96186978 C457.3201076 229.18555866 457.33808045 243.40920362 457.34127206 257.63293123 C457.34343331 265.6140524 457.35212535 273.59504736 457.37773323 281.57613087 C457.39949856 288.37518558 457.40746214 295.17408343 457.39776645 301.97316903 C457.39323841 305.4381429 457.3950196 308.90279351 457.41452789 312.36772251 C457.43228421 316.13573941 457.42512097 319.90294589 457.41199493 323.67096424 C457.4284488 325.2899376 457.4284488 325.2899376 457.44523507 326.94161749 C457.30561589 343.63589537 450.20659115 357.73880888 438.70940399 369.47015858 C428.67630775 379.06703324 415.71530593 384.24867607 401.84849548 384.26844215 C401.14425756 384.27079438 400.44001964 384.27314661 399.71444118 384.27557012 C397.34877361 384.28224022 394.98316122 384.2818025 392.61748505 384.2813921 C390.90651698 384.28469196 389.19554968 384.28841779 387.48458338 384.29253358 C382.77792222 384.30254778 378.07127382 384.30626944 373.36460352 384.30892289 C368.29008855 384.31282767 363.21558366 384.32240591 358.14107513 384.33113575 C345.88344356 384.35089547 333.62581116 384.36096585 321.36816764 384.36986354 C315.5948937 384.37424734 309.82162068 384.37961392 304.04834747 384.38485241 C284.85495189 384.40186437 265.66155687 384.41635829 246.46815491 384.42360115 C241.48769887 384.42551102 236.50724283 384.42743136 231.5267868 384.42938709 C229.6699995 384.4301127 229.6699995 384.4301127 227.77570134 384.43085297 C207.72560792 384.43915233 187.67557418 384.46448782 167.62550682 384.49696777 C147.03758863 384.53004692 126.44970075 384.5480507 105.86175585 384.55124539 C94.30360495 384.55340971 82.74554107 384.56214705 71.18741608 384.58770657 C61.34343725 384.60942523 51.49956658 384.61745821 41.65556651 384.60773978 C36.63522609 384.60319848 31.61510879 384.60507161 26.59479904 384.62450123 C21.99280621 384.64215762 17.39119886 384.64111508 12.7892018 384.62560394 C11.13031062 384.62323163 9.47139257 384.62753173 7.81254238 384.63943259 C-11.26163138 384.76772362 -26.70562343 379.35186496 -40.41168976 365.91937733 C-49.27567611 356.6524825 -55.18318508 344.02693215 -55.20997334 331.05749226 C-55.21443118 330.05233617 -55.21888902 329.04718009 -55.22348195 328.01156473 C-55.22329759 326.91440339 -55.22311323 325.81724204 -55.22292328 324.68683338 C-55.22659997 323.51567053 -55.23027665 322.34450768 -55.23406476 321.13785505 C-55.24317296 317.89059017 -55.2477972 314.64335499 -55.25045407 311.39607954 C-55.25436519 307.89212895 -55.26394301 304.38819288 -55.27266693 300.88425159 C-55.29240947 292.42346639 -55.30249515 283.96268002 -55.31139472 275.50187755 C-55.3157816 271.51379014 -55.32114741 267.52570405 -55.32638359 263.53761768 C-55.34339433 250.27358495 -55.35788709 237.00955302 -55.36513233 223.74551105 C-55.36704211 220.30509407 -55.36896246 216.8646771 -55.37091827 213.42426014 C-55.37140201 212.56920063 -55.37188575 211.71414112 -55.37238415 210.83317071 C-55.38067922 196.99092982 -55.40600796 183.14877549 -55.43849895 169.30657238 C-55.47161212 155.0828835 -55.48958497 140.85923854 -55.49277657 126.63551092 C-55.49493783 118.65438975 -55.50362986 110.67339479 -55.52923775 102.69231129 C-55.55100308 95.89325657 -55.55896666 89.09435873 -55.54927097 82.29527313 C-55.54474293 78.83029926 -55.54652412 75.36564864 -55.56603241 71.90071964 C-55.58378873 68.13270274 -55.57662549 64.36549626 -55.56349945 60.59747791 C-55.5744687 59.51816234 -55.58543794 58.43884677 -55.59673959 57.32682467 C-55.46284192 41.31666934 -49.14744084 27.2209448 -38.03278351 15.89984608 C-27.85466187 6.06533196 -14.11621502 0.02012159 0 0 Z M62.91252899 106.48187733 C53.92457988 118.47230836 50.34900839 132.50057263 52.35002899 147.27875233 C55.37991955 162.65126456 63.25611377 174.35981753 75.90471649 183.27093983 C88.99452622 191.34835152 103.51607672 193.28091993 118.55706024 190.45062733 C133.78075841 185.66092595 144.815462 176.19773983 152.47502899 162.32562733 C158.93331826 148.89467178 159.71224727 135.26244697 154.92424774 121.13422108 C149.43277056 107.28232192 139.86944793 96.7734691 126.42424774 90.38422108 C103.19156739 80.52697198 79.19822494 87.47662826 62.91252899 106.48187733 Z M247.48674774 102.25922108 C244.39428385 106.25576594 243.53057855 110.12638275 243.92424774 115.13422108 C245.55499409 119.84526608 248.03874045 123.02581525 251.92424774 126.13422108 C258.46589108 128.26032663 264.59002266 128.42500008 271.42986298 128.40887928 C272.55774231 128.41399021 273.68562164 128.41910114 274.84767914 128.42436695 C278.55945457 128.43821633 282.27104337 128.43730976 285.98284149 128.43500233 C288.57301655 128.43889155 291.16319096 128.44322669 293.75336456 128.44798756 C299.17599072 128.45543958 304.59854507 128.45530479 310.02117157 128.44989491 C316.27079289 128.44385544 322.52018906 128.45617216 328.76977199 128.47746497 C334.80539659 128.49726522 340.84090402 128.50024772 346.87656593 128.49672985 C349.43414145 128.49724218 351.99172064 128.5024632 354.54927635 128.51254177 C358.12943857 128.52492024 361.70908362 128.51810562 365.28923798 128.50653553 C366.33834854 128.51417927 367.38745911 128.52182301 368.4683609 128.52969837 C375.01052992 128.48312335 382.41897832 128.27091838 387.54676723 123.68230629 C391.60471318 118.93765278 392.2802356 115.73761826 392.20159149 109.67328358 C391.7904833 105.90961705 390.44138414 103.9163192 387.92424774 101.13422108 C382.69307879 97.0160668 378.42895731 96.01649991 371.89707184 95.99377918 C370.90888962 95.98806904 369.9207074 95.98235889 368.90258026 95.97647572 C367.29331665 95.97479893 367.29331665 95.97479893 365.65154266 95.97308826 C364.51274155 95.96812336 363.37394043 95.96315845 362.20063019 95.9580431 C358.43531946 95.94344457 354.67005086 95.93662355 350.90471649 95.93109608 C348.28543853 95.92534307 345.66616057 95.91958535 343.04688263 95.91382313 C338.25659099 95.90426092 333.46630841 95.8983584 328.6760084 95.89532638 C321.64028094 95.89084769 314.60474794 95.87330318 307.56907958 95.84432578 C301.46139167 95.82004943 295.35378366 95.81237943 289.24604988 95.81065083 C286.65414941 95.80762676 284.06224971 95.79960657 281.47038078 95.78646564 C277.84181671 95.76938064 274.21372457 95.77129167 270.58513641 95.77777576 C269.5183667 95.76856098 268.45159698 95.7593462 267.35250092 95.74985218 C260.11801801 95.79027788 252.52306238 96.35260844 247.48674774 102.25922108 Z M246.61174774 188.32172108 C244.26772413 192.22842709 243.61397724 195.5936772 243.92424774 200.13422108 C245.25032459 204.8125543 247.18325319 207.54444991 250.98674774 210.57172108 C254.85190174 212.62765406 257.60064418 213.26035003 261.9141922 213.27466297 C263.45978317 213.28322819 263.45978317 213.28322819 265.03659821 213.29196644 C266.16652695 213.2930843 267.29645569 213.29420216 268.46062469 213.29535389 C269.6511142 213.30031879 270.8416037 213.3052837 272.06816864 213.31039906 C275.3348244 213.32250785 278.60144437 213.32996596 281.86811852 213.33440971 C283.90996021 213.33734239 285.95179631 213.34144758 287.99363518 213.34591389 C294.38485065 213.35958639 300.77605332 213.36925407 307.1672824 213.37311578 C314.53980911 213.37759512 321.91215028 213.39513813 329.28462058 213.42411637 C334.98664233 213.44574908 340.68861195 213.45582091 346.39067429 213.4571569 C349.794677 213.45820386 353.19850525 213.46408813 356.60246468 213.48197651 C360.40168215 213.49901422 364.20044711 213.49716197 367.99968719 213.49066639 C369.12354324 213.49988117 370.24739929 213.50909595 371.40531158 213.51858997 C378.69483609 213.47951182 383.14431591 212.60527159 388.73674774 207.63422108 C392.29778962 203.56445893 392.27322523 199.82772457 392.19768524 194.63812733 C391.78427335 190.85245555 390.49578041 188.90356395 387.92424774 186.13422108 C381.67722846 181.51948865 376.26424154 181.56279187 368.6583786 181.61664295 C367.43804428 181.60963367 366.21770996 181.6026244 364.96039581 181.59540272 C361.62958295 181.58085917 358.29976982 181.58420295 354.96901393 181.59691906 C351.47512063 181.60708535 347.98126843 181.59764356 344.48737335 181.5913744 C338.62242258 181.58410945 332.75767369 181.59365621 326.8927536 181.6127367 C320.12099067 181.63451362 313.34970936 181.62744388 306.57795805 181.60543108 C300.75267646 181.58725613 294.92753951 181.58472861 289.10223871 181.59518576 C285.62786471 181.60140797 282.15371683 181.60229152 278.67935753 181.5890398 C274.80628987 181.57529746 270.93375823 181.59436527 267.06072235 181.61664295 C265.91509827 181.60854603 264.76947418 181.6004491 263.58913422 181.59210682 C255.69061307 181.67628756 252.34703114 182.89645299 246.61174774 188.32172108 Z M22.92424774 234.13422108 C12.26238638 247.98214648 7.44421753 264.68219814 8.92424774 282.13422108 C9.6653058 287.37720685 11.06110793 291.37839071 14.92424774 295.13422108 C19.43375199 297.82752512 22.75125656 298.51153 27.97660065 298.52190113 C28.66282503 298.52728667 29.34904942 298.53267221 30.05606848 298.53822094 C32.34296136 298.55246614 34.62927258 298.54540565 36.9161911 298.53827381 C38.56087457 298.5439792 40.20555407 298.55094411 41.85022736 298.55907154 C46.30893476 298.57699946 50.76744532 298.57583527 55.22617793 298.57012916 C58.95134062 298.56703679 62.67646552 298.57313029 66.40162283 298.5791679 C75.19101616 298.5932103 83.98031228 298.5916542 92.76970673 298.580266 C101.83113421 298.56878463 110.89226574 298.58286138 119.95365423 298.60966247 C127.73982861 298.63182786 135.52591014 298.63845497 143.31211382 298.63258606 C147.95968594 298.62921734 152.60706834 298.63162595 157.25461388 298.64883709 C161.62549827 298.66431755 165.9959446 298.6603386 170.36681175 298.64153194 C171.96837023 298.63784911 173.56996124 298.64094566 175.17148972 298.65141773 C177.36313238 298.66465134 179.55332978 298.65306153 181.74491119 298.63542652 C183.58187766 298.6351126 183.58187766 298.6351126 185.45595455 298.63479233 C190.97993665 297.83752794 194.69952783 295.61677676 198.29924774 291.25922108 C203.7709462 280.73672403 201.26890161 264.73602853 197.92424774 253.89203358 C191.13837602 236.7041348 180.40670946 225.5652842 163.91643524 217.72797108 C156.68114438 214.66147527 149.47589949 213.83492538 141.67937469 213.84369373 C140.36514275 213.8336179 140.36514275 213.8336179 139.02436066 213.82333851 C136.15369094 213.80448188 133.28325663 213.80044033 130.41252899 213.79828358 C128.39626727 213.79184622 126.38000647 213.78511718 124.36374664 213.77811146 C120.14504077 213.76616884 115.92641658 213.76242744 111.70769501 213.76361561 C106.33614738 213.76381842 100.96513103 213.73654154 95.59370899 213.70207119 C91.43005784 213.67968958 87.26653218 213.67578153 83.10282707 213.67683506 C81.12433483 213.67449505 79.14583826 213.66576319 77.16740608 213.65017033 C55.84211375 213.49784975 38.00494761 217.77061445 22.92424774 234.13422108 Z M246.48674774 273.82172108 C243.97750919 279.1413068 243.13904308 283.73241858 244.98674774 289.38422108 C247.65994896 293.17844216 250.72167833 296.03293637 254.92424774 298.13422108 C256.58082763 298.23554942 258.24144215 298.273668 259.90110016 298.2813921 C261.48032509 298.29212505 261.48032509 298.29212505 263.09145355 298.30307484 C264.25145874 298.30576374 265.41146393 298.30845264 266.60662079 298.31122303 C268.43361763 298.32107983 268.43361763 298.32107983 270.2975235 298.33113575 C274.34367363 298.3509078 278.38978405 298.36254112 282.43596649 298.37250233 C283.82943301 298.37654999 285.22289932 298.38066691 286.61636543 298.38485241 C293.16509407 298.4039086 299.71381142 298.41813693 306.26256245 298.42646438 C313.81682249 298.43622928 321.37078892 298.46252713 328.92494553 298.50296527 C334.76623838 298.53315848 340.60744725 298.5479364 346.4488166 298.55124539 C349.93620405 298.5535929 353.423278 298.56251312 356.91058159 298.58770657 C360.80544979 298.61538866 364.69993432 298.61114631 368.59490204 298.60419178 C370.31972809 298.62340687 370.31972809 298.62340687 372.07939911 298.64301014 C378.59881511 298.60057977 382.63757452 298.05037173 387.92424774 294.13422108 C391.24541619 290.55757813 392.19172607 287.83941221 392.36174774 283.07172108 C392.13218357 278.12498349 391.12443568 275.24423738 387.49456024 271.76312733 C383.32591322 268.10259897 380.385098 267.01304475 374.94776154 266.98705006 C373.40650604 266.9763171 373.40650604 266.9763171 371.83411407 266.96536732 C370.70732742 266.96267841 369.58054077 266.95998951 368.41960907 266.95721912 C367.23233215 266.95064793 366.04505524 266.94407673 364.82180023 266.9373064 C360.8832997 266.91755746 356.94481249 266.90590421 353.00627899 266.89593983 C351.64843157 266.89189113 350.29058436 266.88777417 348.93273735 266.88358974 C342.55113214 266.86454061 336.16953845 266.85031047 329.78791028 266.84197778 C322.43232848 266.83221382 315.07704828 266.8059155 307.7215727 266.76547688 C302.029712 266.73526345 296.33793748 266.72050387 290.64599818 266.71719676 C287.24969288 266.7148517 283.85370987 266.70596339 280.45749092 266.68073559 C276.66336967 266.65638866 272.87003452 266.6573018 269.07585907 266.66425037 C267.95919357 266.65144032 266.84252808 266.63863026 265.69202423 266.62543201 C257.79897787 266.6780508 251.92424164 267.8265355 246.48674774 273.82172108 Z " fill="#000000" transform="translate(55.07575225830078,63.86577892303467)"/>
</svg>
